#N canvas 544 488 197 303 10;
#X floatatom 65 179 5 0 0 0 - - -;
#X obj 65 209 osc~;
#X obj 65 153 line;
#X obj 101 95 mtof;
#X floatatom 101 67 5 0 0 0 - - -;
#X obj 32 40 unpack s f f;
#X msg 129 136 10000;
#X obj 65 240 *~ 0.11;
#X obj 32 14 inlet;
#X obj 65 272 outlet~;
#X connect 0 0 1 0;
#X connect 1 0 7 0;
#X connect 2 0 0 0;
#X connect 3 0 6 0;
#X connect 3 0 2 0;
#X connect 4 0 3 0;
#X connect 5 2 4 0;
#X connect 6 0 2 1;
#X connect 7 0 9 0;
#X connect 8 0 5 0;
