#N canvas 21 494 776 314 10;
#X declare -lib mrpeach;
#X obj 31 26 import mrpeach;
#X obj 298 30 udpreceive 9001;
#X obj 298 63 unpackOSC;
#X obj 298 96 routeOSC /voice;
#X obj 124 98 dac~;
#X obj 243 99 print;
#X obj 126 28 catch~ left;
#X obj 202 29 catch~ right;
#X obj 298 129 route 0 1 2 3 4 5 6 7 8;
#X obj 20 223 gjallarhorn;
#X obj 20 256 throw~ left;
#X obj 102 223 gjallarhorn;
#X obj 102 256 throw~ right;
#X obj 189 223 gjallarhorn;
#X obj 189 256 throw~ left;
#X obj 267 223 gjallarhorn;
#X obj 267 256 throw~ right;
#X obj 351 223 gjallarhorn;
#X obj 351 256 throw~ left;
#X obj 433 223 gjallarhorn;
#X obj 433 256 throw~ right;
#X obj 520 223 gjallarhorn;
#X obj 520 256 throw~ left;
#X obj 598 223 gjallarhorn;
#X obj 598 256 throw~ right;
#X obj 679 223 gjallarhorn;
#X obj 679 256 throw~ left;
#X msg 679 46 \; pd dsp 1;
#X obj 679 23 loadbang;
#X obj 125 67 freeverb~;
#X connect 1 0 2 0;
#X connect 2 0 3 0;
#X connect 2 0 5 0;
#X connect 3 0 8 0;
#X connect 6 0 29 0;
#X connect 7 0 29 1;
#X connect 8 0 9 0;
#X connect 8 1 11 0;
#X connect 8 2 13 0;
#X connect 8 3 15 0;
#X connect 8 4 17 0;
#X connect 8 5 19 0;
#X connect 8 6 21 0;
#X connect 8 7 23 0;
#X connect 8 8 25 0;
#X connect 9 0 10 0;
#X connect 11 0 12 0;
#X connect 13 0 14 0;
#X connect 15 0 16 0;
#X connect 17 0 18 0;
#X connect 19 0 20 0;
#X connect 21 0 22 0;
#X connect 23 0 24 0;
#X connect 25 0 26 0;
#X connect 28 0 27 0;
#X connect 29 0 4 0;
#X connect 29 1 4 1;
